<svg width="200" height="45" viewBox="0 0 200 45" fill="none" xmlns="http://www.w3.org/2000/svg">
<path d="M200 6.81345L164.564 42.2493C163.37 43.4125 161.768 44.0634 160.101 44.0634C158.434 44.0634 156.833 43.4125 155.638 42.2493L134.156 20.8271L140.94 14.0434L160.042 33.1449L193.216 0L200 6.81345ZM35.7037 16.5427C35.7076 18.7137 35.2833 20.8642 34.4552 22.8711C33.6271 24.8779 32.4114 26.7018 30.8777 28.2383C29.3439 29.7749 27.5222 30.9939 25.5168 31.8256C23.5114 32.6573 21.3617 33.0854 19.1907 33.0854H9.37221V44.1238H0V0H19.2502C21.4173 0.00389763 23.5624 0.435097 25.5627 1.26892C27.563 2.10275 29.3792 3.32283 30.9074 4.85936C32.4357 6.39588 33.6459 8.21869 34.4689 10.2235C35.2919 12.2282 35.7115 14.3756 35.7037 16.5427ZM26.2719 16.5427C26.2486 14.5247 25.4346 12.5964 24.0048 11.1721C22.575 9.74787 20.6435 8.94136 18.6254 8.92591H9.46147V24.3677H18.6254C19.65 24.3718 20.6651 24.1715 21.6113 23.7786C22.5575 23.3857 23.4159 22.808 24.1362 22.0794C24.8566 21.3508 25.4243 20.4858 25.8064 19.5352C26.1884 18.5845 26.377 17.5671 26.3612 16.5427H26.2719ZM44.1238 44.1238H74.5611V35.1979H53.734V25.8554H70.0982V16.9295H53.734V8.92591H74.5611V0H44.3023L44.1238 44.1238ZM99.0181 0H121.72V44.1238H112.258V30.2589H107.111C106.674 30.2581 106.242 30.3537 105.846 30.5389C105.45 30.724 105.1 30.9941 104.82 31.33L94.1089 44.094H81.9101L90.8361 33.3829C91.8584 32.0284 93.0481 30.8088 94.3767 29.753C90.9457 28.6177 88.0289 26.3018 86.1454 23.2175C84.2619 20.1332 83.5339 16.4806 84.091 12.9099C84.648 9.33919 86.4539 6.08194 89.1874 3.7179C91.9208 1.35386 95.4044 0.0363967 99.0181 0ZM99.6727 8.92591C97.9998 8.92591 96.3954 9.59047 95.2125 10.7734C94.0296 11.9563 93.3651 13.5607 93.3651 15.2336C93.3651 16.9065 94.0296 18.5108 95.2125 19.6937C96.3954 20.8767 97.9998 21.5412 99.6727 21.5412H112.258V8.92591H99.6727Z" fill="url(#paint0_radial_311_39)"/>
<defs>
<radialGradient id="paint0_radial_311_39" cx="0" cy="0" r="1" gradientUnits="userSpaceOnUse" gradientTransform="rotate(12.4074) scale(204.783 928.22)">
<stop stop-color="#FEB301"/>
<stop offset="0.510417" stop-color="#F36D1C"/>
<stop offset="1" stop-color="#FB196F"/>
</radialGradient>
</defs>
</svg>
