<svg width="200" height="45" viewBox="0 0 200 45" fill="none" xmlns="http://www.w3.org/2000/svg">
<g clip-path="url(#clip0_12_34)">
<path d="M199.97 6.7837L164.534 42.2493C163.34 43.4125 161.739 44.0634 160.071 44.0634C158.404 44.0634 156.803 43.4125 155.608 42.2493L134.246 20.8569L141 14.0732L160.131 33.2044L193.306 5.27501e-06L199.97 6.7837ZM35.7631 16.5427C35.7631 20.9301 34.0203 25.1378 30.9179 28.2402C27.8156 31.3425 23.6078 33.0854 19.2204 33.0854H9.43176V44.1238H0V5.27501e-06H19.2502C23.6325 0.00788701 27.8325 1.75426 30.9284 4.85576C34.0244 7.95726 35.7631 12.1605 35.7631 16.5427ZM26.3315 16.5427C26.3315 15.5282 26.1311 14.5237 25.742 13.5868C25.3529 12.65 24.7827 11.7991 24.0639 11.0832C23.3452 10.3672 22.4922 9.8002 21.5538 9.41469C20.6154 9.02918 19.6101 8.83275 18.5957 8.83666H9.43176V24.2487H18.5957C19.6101 24.2527 20.6154 24.0562 21.5538 23.6707C22.4922 23.2852 23.3452 22.7182 24.0639 22.0022C24.7827 21.2863 25.3529 20.4354 25.742 19.4986C26.1311 18.5617 26.3315 17.5572 26.3315 16.5427ZM44.1833 44.1238H74.4124V35.1979H53.5853V25.7662H69.9494V16.8402H53.5853V8.65815H74.4124V-0.267761H44.1833V44.1238ZM98.8991 5.27501e-06H121.601V44.1238H112.139V30.2589H107.111C106.676 30.2545 106.246 30.3455 105.85 30.5254C105.454 30.7053 105.103 30.9698 104.82 31.3002L94.1089 44.0643H81.7316L90.6575 33.3829C91.6702 32.0484 92.8389 30.8397 94.1387 29.7828C91.0675 28.7706 88.399 26.8055 86.5209 24.173C84.6429 21.5405 83.6531 18.3778 83.6953 15.1443C83.6952 13.143 84.0918 11.1614 84.8622 9.31427C85.6326 7.46711 86.7614 5.79098 88.1834 4.38274C89.6055 2.9745 91.2927 1.86209 93.1473 1.10982C95.0019 0.357554 96.9871 -0.0196544 98.9884 5.27501e-06H98.8991ZM99.524 8.92592C97.8563 8.93379 96.2595 9.60181 95.083 10.7839C93.9065 11.9659 93.246 13.5658 93.246 15.2336C93.2539 16.8962 93.9178 18.4884 95.0934 19.6641C96.2691 20.8397 97.8614 21.5036 99.524 21.5115H112.139V8.92592H99.524Z" fill="white"/>
</g>
<defs>
<clipPath id="clip0_12_34">
<rect width="200" height="44.094" fill="white"/>
</clipPath>
</defs>
</svg>
