<svg width="110" height="98" viewBox="0 0 110 98" fill="none" xmlns="http://www.w3.org/2000/svg">
<path d="M47.29 66.29L48.71 67.71L41.71 74.71C41.617 74.8037 41.5064 74.8781 41.3845 74.9289C41.2627 74.9797 41.132 75.0058 41 75.0058C40.868 75.0058 40.7373 74.9797 40.6155 74.9289C40.4936 74.8781 40.383 74.8037 40.29 74.71L36.29 70.71L37.71 69.29L41 72.59L47.29 66.29ZM53 72H74V70H53V72ZM41 57.59L37.71 54.29L36.29 55.71L40.29 59.71C40.383 59.8037 40.4936 59.8781 40.6155 59.9289C40.7373 59.9797 40.868 60.0058 41 60.0058C41.132 60.0058 41.2627 59.9797 41.3845 59.9289C41.5064 59.8781 41.617 59.8037 41.71 59.71L48.71 52.71L47.29 51.29L41 57.59ZM53 57H74V55H53V57ZM57 36H36V38H57V36ZM41 87.59L37.71 84.29L36.29 85.71L40.29 89.71C40.383 89.8037 40.4936 89.8781 40.6155 89.9289C40.7373 89.9797 40.868 90.0058 41 90.0058C41.132 90.0058 41.2627 89.9797 41.3845 89.9289C41.5064 89.8781 41.617 89.8037 41.71 89.71L48.71 82.71L47.29 81.29L41 87.59ZM53 87H74V85H53V87ZM82 46V97C82 97.2652 81.8947 97.5196 81.7071 97.7071C81.5196 97.8946 81.2652 98 81 98H29C28.7348 98 28.4804 97.8946 28.2928 97.7071C28.1053 97.5196 28 97.2652 28 97V73.38C26.1761 74.438 24.1057 74.9968 21.9972 75C19.8887 75.0032 17.8165 74.4508 15.9894 73.3984C14.1623 72.346 12.6447 70.8308 11.5895 69.0053C10.5343 67.1798 9.97875 65.1085 9.97875 63C9.97875 60.8915 10.5343 58.8202 11.5895 56.9947C12.6447 55.1692 14.1623 53.654 15.9894 52.6016C17.8165 51.5492 19.8887 50.9968 21.9972 51C24.1057 51.0032 26.1761 51.562 28 52.62V27C28 26.7348 28.1053 26.4804 28.2928 26.2929C28.4804 26.1054 28.7348 26 29 26H62C62.1985 22.3351 63.4543 18.8061 65.6156 15.8396C67.7769 12.8731 70.7511 10.5961 74.1788 9.28381C77.6065 7.97151 81.3409 7.68008 84.9307 8.44476C88.5204 9.20944 91.8119 10.9975 94.4072 13.5928C97.0025 16.1881 98.7906 19.4796 99.5553 23.0693C100.32 26.6591 100.028 30.3935 98.7162 33.8212C97.4039 37.2489 95.1269 40.2231 92.1604 42.3843C89.1939 44.5456 85.6649 45.8015 82 46ZM64 27C64 30.3623 64.997 33.6491 66.865 36.4447C68.733 39.2403 71.388 41.4192 74.4944 42.7059C77.6007 43.9926 81.0188 44.3293 84.3165 43.6733C87.6142 43.0174 90.6434 41.3983 93.0209 39.0208C95.3984 36.6433 97.0174 33.6142 97.6733 30.3165C98.3293 27.0189 97.9926 23.6007 96.7059 20.4944C95.4192 17.388 93.2403 14.733 90.4447 12.865C87.6491 10.997 84.3623 10 81 10C76.4913 10 72.1672 11.7911 68.9791 14.9792C65.791 18.1673 64 22.4913 64 27ZM22 73C23.9778 73 25.9112 72.4135 27.5557 71.3147C29.2001 70.2159 30.4819 68.6541 31.2388 66.8268C31.9956 64.9996 32.1937 62.9889 31.8079 61.0491C31.422 59.1093 30.4696 57.3275 29.071 55.929C27.6725 54.5304 25.8907 53.578 23.9509 53.1921C22.0111 52.8063 20.0005 53.0044 18.1732 53.7612C16.3459 54.5181 14.7841 55.7998 13.6853 57.4443C12.5865 59.0888 12 61.0222 12 63C12 65.6522 13.0536 68.1957 14.9289 70.071C16.8043 71.9464 19.3478 73 22 73ZM80 96V46C75.3042 45.7587 70.8647 43.7849 67.5399 40.4601C64.2151 37.1353 62.2413 32.6958 62 28H30V54.08C31.2575 55.201 32.2638 56.5753 32.9528 58.1125C33.6417 59.6498 33.9979 61.3154 33.9979 63C33.9979 64.6846 33.6417 66.3502 32.9528 67.8875C32.2638 69.4247 31.2575 70.799 30 71.92V96H80ZM110 72C110 74.3734 109.296 76.6935 107.978 78.6669C106.659 80.6403 104.785 82.1783 102.592 83.0865C100.399 83.9948 97.9867 84.2324 95.6589 83.7694C93.3312 83.3064 91.193 82.1635 89.5148 80.4853C87.8365 78.8071 86.6936 76.6688 86.2306 74.3411C85.7676 72.0133 86.0052 69.6005 86.9134 67.4078C87.8217 65.2151 89.3597 63.3409 91.3331 62.0223C93.3065 60.7038 95.6266 60 98 60C101.183 60 104.235 61.2643 106.485 63.5147C108.736 65.7651 110 68.8174 110 72ZM108 72C108 70.0222 107.414 68.0888 106.315 66.4443C105.216 64.7998 103.654 63.5181 101.827 62.7612C99.9995 62.0044 97.9889 61.8063 96.0491 62.1921C94.1093 62.578 92.3275 63.5304 90.9289 64.929C89.5304 66.3275 88.578 68.1093 88.1921 70.0491C87.8063 71.9889 88.0043 73.9996 88.7612 75.8268C89.5181 77.6541 90.7998 79.2159 92.4443 80.3147C94.0888 81.4135 96.0222 82 98 82C100.652 82 103.196 80.9464 105.071 79.071C106.946 77.1957 108 74.6522 108 72ZM81 42C83.2778 42.0019 85.5262 41.4849 87.5745 40.4885C89.6227 39.492 91.4171 38.0421 92.8215 36.2488C94.226 34.4556 95.2037 32.3659 95.6803 30.1385C96.1569 27.9112 96.1199 25.6045 95.5723 23.3935C95.0246 21.1825 93.9806 19.1253 92.5194 17.3779C91.0582 15.6305 89.2184 14.2388 87.1393 13.3084C85.0602 12.378 82.7963 11.9333 80.5198 12.0081C78.2432 12.0829 76.0136 12.6751 74 13.74L74.9399 15.51C76.5162 14.6841 78.2453 14.1905 80.02 14.06V17H82.02V14C85.126 14.231 88.0458 15.5694 90.2482 17.7718C92.4505 19.9741 93.789 22.894 94.02 26H91.02V28H94.02C93.789 31.106 92.4505 34.0259 90.2482 36.2282C88.0458 38.4306 85.126 39.769 82.02 40V37H80.02V40C76.914 39.769 73.9941 38.4306 71.7917 36.2282C69.5894 34.0259 68.251 31.106 68.02 28H71.02V26H68.02C68.2349 23.0835 69.4337 20.3263 71.42 18.18L69.9499 16.82C67.9688 18.964 66.6563 21.6394 66.1733 24.5184C65.6904 27.3973 66.058 30.3547 67.2311 33.0278C68.4041 35.7009 70.3317 37.9736 72.7775 39.5673C75.2232 41.161 78.0808 42.0065 81 42ZM75 5V1C75 0.734784 75.1053 0.480444 75.2928 0.292908C75.4804 0.105371 75.7348 0 76 0H86C86.2652 0 86.5196 0.105371 86.7071 0.292908C86.8947 0.480444 87 0.734784 87 1V5C87 5.26522 86.8947 5.51956 86.7071 5.70709C86.5196 5.89463 86.2652 6 86 6H76C75.7348 6 75.4804 5.89463 75.2928 5.70709C75.1053 5.51956 75 5.26522 75 5ZM77 4H85V2H77V4ZM88.71 20.71L83.71 25.71C83.9315 26.1674 84.0333 26.6734 84.0056 27.1808C83.978 27.6883 83.8219 28.1804 83.552 28.611C83.2821 29.0415 82.9073 29.3965 82.4626 29.6425C82.018 29.8886 81.5182 30.0177 81.01 30.0177C80.5018 30.0177 80.002 29.8886 79.5574 29.6425C79.1127 29.3965 78.7379 29.0415 78.468 28.611C78.1981 28.1804 78.042 27.6883 78.0144 27.1808C77.9867 26.6734 78.0885 26.1674 78.3101 25.71L75.3101 22.71L76.73 21.29L79.73 24.29C80.1313 24.0924 80.5727 23.9896 81.02 23.9896C81.4673 23.9896 81.9087 24.0924 82.3101 24.29L87.3101 19.29L88.71 20.71ZM82 27C82 26.8022 81.9413 26.6089 81.8314 26.4445C81.7215 26.28 81.5654 26.1518 81.3827 26.0761C81.2 26.0004 80.9989 25.9806 80.8049 26.0192C80.6109 26.0578 80.4327 26.1531 80.2928 26.2929C80.153 26.4328 80.0577 26.611 80.0192 26.8049C79.9806 26.9989 80.0005 27.2 80.0762 27.3827C80.1519 27.5654 80.28 27.7216 80.4445 27.8315C80.6089 27.9414 80.8022 28 81 28C81.2652 28 81.5196 27.8946 81.7071 27.7071C81.8947 27.5196 82 27.2652 82 27ZM103.5 70C103.5 71.0609 103.079 72.0783 102.328 72.8284C101.578 73.5786 100.561 74 99.5 74H97.5V75H99.5V77H97.5V78H95.5V77H93.5V75H95.5V74H93.5V72H95.5V67C95.5 66.7348 95.6053 66.4804 95.7928 66.2929C95.9804 66.1054 96.2348 66 96.5 66H99.5C100.561 66 101.578 66.4214 102.328 67.1716C103.079 67.9217 103.5 68.9391 103.5 70ZM101.5 70C101.5 69.4696 101.289 68.9609 100.914 68.5858C100.539 68.2107 100.03 68 99.5 68H97.5V72H99.5C100.03 72 100.539 71.7893 100.914 71.4142C101.289 71.0391 101.5 70.5304 101.5 70ZM12 39C9.62662 39 7.30651 38.2962 5.33312 36.9777C3.35973 35.6591 1.8217 33.7849 0.913445 31.5922C0.00519377 29.3995 -0.232439 26.9867 0.230584 24.6589C0.693607 22.3312 1.83653 20.1929 3.51476 18.5147C5.19299 16.8365 7.33116 15.6936 9.65893 15.2306C11.9867 14.7676 14.3994 15.0052 16.5922 15.9135C18.7849 16.8217 20.6591 18.3597 21.9777 20.3331C23.2962 22.3065 24 24.6266 24 27C24 30.1826 22.7357 33.2349 20.4852 35.4853C18.2348 37.7357 15.1826 39 12 39ZM12 37C13.9778 37 15.9112 36.4135 17.5557 35.3147C19.2001 34.2159 20.4819 32.6541 21.2388 30.8268C21.9956 28.9996 22.1937 26.9889 21.8079 25.0491C21.422 23.1093 20.4696 21.3275 19.071 19.929C17.6725 18.5304 15.8907 17.578 13.9509 17.1921C12.0111 16.8063 10.0005 17.0044 8.17321 17.7612C6.34595 18.5181 4.78411 19.7998 3.6853 21.4443C2.58648 23.0888 1.99999 25.0222 1.99999 27C1.99999 29.6522 3.05358 32.1957 4.92895 34.071C6.80431 35.9464 9.34783 37 12 37ZM11.5 32V33H9.49999V32H7.49999V30H9.49999V29H7.49999V27H9.49999V22C9.49999 21.7348 9.6053 21.4804 9.79284 21.2929C9.98038 21.1054 10.2348 21 10.5 21H13.5C14.5609 21 15.5782 21.4214 16.3284 22.1716C17.0785 22.9217 17.5 23.9391 17.5 25C17.5 26.0609 17.0785 27.0783 16.3284 27.8284C15.5782 28.5786 14.5609 29 13.5 29H11.5V30H13.5V32H11.5ZM13.5 23H11.5V27H13.5C14.0304 27 14.5391 26.7893 14.9142 26.4142C15.2893 26.0391 15.5 25.5304 15.5 25C15.5 24.4696 15.2893 23.9609 14.9142 23.5858C14.5391 23.2107 14.0304 23 13.5 23ZM27.5 61C27.5 62.0609 27.0785 63.0783 26.3284 63.8284C25.5782 64.5786 24.5609 65 23.5 65H21.5V66H23.5V68H21.5V69H19.5V68H17.5V66H19.5V65H17.5V63H19.5V58C19.5 57.7348 19.6053 57.4804 19.7928 57.2929C19.9804 57.1054 20.2348 57 20.5 57H23.5C24.5609 57 25.5782 57.4214 26.3284 58.1716C27.0785 58.9217 27.5 59.9391 27.5 61ZM25.5 61C25.5 60.4696 25.2892 59.9609 24.9142 59.5858C24.5391 59.2107 24.0304 59 23.5 59H21.5V63H23.5C24.0304 63 24.5391 62.7893 24.9142 62.4142C25.2892 62.0391 25.5 61.5304 25.5 61Z" fill="url(#paint0_radial_170_119)"/>
<defs>
<radialGradient id="paint0_radial_170_119" cx="0" cy="0" r="1" gradientUnits="userSpaceOnUse" gradientTransform="rotate(41.6981) scale(147.323 165.362)">
<stop stop-color="#FEB301"/>
<stop offset="0.510417" stop-color="#F36D1C"/>
<stop offset="1" stop-color="#FB196F"/>
</radialGradient>
</defs>
</svg>
