<svg width="82" height="98" viewBox="0 0 82 98" fill="none" xmlns="http://www.w3.org/2000/svg">
<path d="M81 0H31C30.7348 0 30.4804 0.105371 30.2929 0.292908C30.1054 0.480444 30 0.734784 30 1V26H1C0.734784 26 0.480444 26.1054 0.292908 26.2929C0.105371 26.4804 0 26.7348 0 27V97C0 97.2652 0.105371 97.5196 0.292908 97.7071C0.480444 97.8946 0.734784 98 1 98H51C51.2652 98 51.5196 97.8946 51.7071 97.7071C51.8946 97.5196 52 97.2652 52 97V72H81C81.2652 72 81.5196 71.8946 81.7071 71.7071C81.8946 71.5196 82 71.2652 82 71V1C82 0.734784 81.8946 0.480444 81.7071 0.292908C81.5196 0.105371 81.2652 0 81 0ZM50 96H2V28H50V96ZM40 26V10H72V46H52V27C52 26.7348 51.8946 26.4804 51.7071 26.2929C51.5196 26.1054 51.2652 26 51 26H40ZM80 70H52V64H64V62H52V56H74V54H52V48H73C73.2652 48 73.5196 47.8946 73.7071 47.7071C73.8946 47.5196 74 47.2652 74 47V9C74 8.73478 73.8946 8.48044 73.7071 8.29291C73.5196 8.10537 73.2652 8 73 8H39C38.7348 8 38.4804 8.10537 38.2929 8.29291C38.1054 8.48044 38 8.73478 38 9V26H32V2H80V70ZM44 78H8V76H44V78ZM67 62H74V64H67V62ZM34 86H8V84H34V86ZM17 50C18.3845 50 19.7378 49.5895 20.889 48.8203C22.0401 48.0511 22.9373 46.9579 23.4672 45.6788C23.997 44.3997 24.1356 42.9922 23.8655 41.6343C23.5954 40.2765 22.9287 39.0292 21.9498 38.0502C20.9708 37.0713 19.7235 36.4046 18.3657 36.1345C17.0078 35.8644 15.6003 36.003 14.3212 36.5328C13.0421 37.0626 11.9489 37.9599 11.1797 39.111C10.4105 40.2622 10 41.6155 10 43C10 44.8565 10.7375 46.637 12.0502 47.9498C13.363 49.2625 15.1435 50 17 50ZM17 38C17.9889 38 18.9556 38.2932 19.7778 38.8427C20.6001 39.3921 21.2409 40.173 21.6194 41.0866C21.9978 42.0002 22.0969 43.0056 21.9039 43.9755C21.711 44.9454 21.2348 45.8363 20.5355 46.5355C19.8363 47.2348 18.9454 47.711 17.9755 47.9039C17.0056 48.0969 16.0002 47.9978 15.0866 47.6194C14.173 47.2409 13.3921 46.6001 12.8427 45.7778C12.2932 44.9556 12 43.9889 12 43C12 41.6739 12.5268 40.4022 13.4645 39.4645C14.4022 38.5268 15.6739 38 17 38ZM28 61C28 62.3845 28.4105 63.7378 29.1797 64.889C29.9489 66.0401 31.0421 66.9373 32.3212 67.4672C33.6003 67.997 35.0078 68.1356 36.3657 67.8655C37.7235 67.5954 38.9708 66.9287 39.9498 65.9498C40.9287 64.9708 41.5954 63.7235 41.8655 62.3657C42.1356 61.0078 41.997 59.6003 41.4672 58.3212C40.9374 57.0421 40.0401 55.9489 38.889 55.1797C37.7378 54.4105 36.3845 54 35 54C33.1435 54 31.363 54.7375 30.0502 56.0502C28.7375 57.363 28 59.1435 28 61ZM40 61C40 61.9889 39.7068 62.9556 39.1573 63.7778C38.6079 64.6001 37.827 65.2409 36.9134 65.6194C35.9998 65.9978 34.9944 66.0969 34.0245 65.9039C33.0546 65.711 32.1637 65.2348 31.4645 64.5355C30.7652 63.8363 30.289 62.9454 30.0961 61.9755C29.9031 61.0056 30.0022 60.0002 30.3806 59.0866C30.7591 58.173 31.3999 57.3921 32.2222 56.8427C33.0444 56.2932 34.0111 56 35 56C36.3261 56 37.5978 56.5268 38.5355 57.4645C39.4732 58.4022 40 59.6739 40 61ZM15.29 61.29L35.29 41.29L36.71 42.71L16.71 62.71L15.29 61.29Z" fill="url(#paint0_radial_401_13)"/>
<defs>
<radialGradient id="paint0_radial_401_13" cx="0" cy="0" r="1" gradientUnits="userSpaceOnUse" gradientTransform="rotate(50.0796) scale(127.781 106.919)">
<stop stop-color="#FEB301"/>
<stop offset="0.510417" stop-color="#F36D1C"/>
<stop offset="1" stop-color="#FB196F"/>
</radialGradient>
</defs>
</svg>
