<svg width="82" height="98" viewBox="0 0 82 98" fill="none" xmlns="http://www.w3.org/2000/svg">
<path d="M81 0H37C36.7348 0 36.4804 0.105371 36.2929 0.292908C36.1054 0.480444 36 0.734784 36 1V10H1C0.734784 10 0.480444 10.1054 0.292908 10.2929C0.105371 10.4804 0 10.7348 0 11V97C0 97.2652 0.105371 97.5196 0.292908 97.7071C0.480444 97.8946 0.734784 98 1 98H74C74.2652 98 74.5196 97.8946 74.7071 97.7071C74.8946 97.5196 75 97.2652 75 97V88H81C81.2652 88 81.5196 87.8946 81.7071 87.7071C81.8946 87.5196 82 87.2652 82 87V1C82 0.734784 81.8946 0.480444 81.7071 0.292908C81.5196 0.105371 81.2652 0 81 0ZM38 3.84998L42.92 10H38V3.84998ZM46 30H74V64H46V30ZM45.77 10.38L43.87 8H74V22H46V11C45.9959 10.7732 45.9148 10.5546 45.77 10.38ZM32 71V96H2V12H44V70H33C32.7348 70 32.4804 70.1054 32.2929 70.2929C32.1054 70.4804 32 70.7348 32 71ZM73 96H34V72H73V96ZM80 86H75V71C75 70.7348 74.8946 70.4804 74.7071 70.2929C74.5196 70.1054 74.2652 70 74 70H46V66H75C75.2652 66 75.5196 65.8946 75.7071 65.7071C75.8946 65.5196 76 65.2652 76 65V29C76 28.7348 75.8946 28.4804 75.7071 28.2929C75.5196 28.1054 75.2652 28 75 28H46V24H75C75.2652 24 75.5196 23.8946 75.7071 23.7071C75.8946 23.5196 76 23.2652 76 23V7C76 6.73478 75.8946 6.48044 75.7071 6.29291C75.5196 6.10537 75.2652 6 75 6H42.28L39.08 2H80V86ZM39 16H7C6.73478 16 6.48044 16.1054 6.29291 16.2929C6.10537 16.4804 6 16.7348 6 17V49C6 49.2652 6.10537 49.5196 6.29291 49.7071C6.48044 49.8946 6.73478 50 7 50H39C39.2652 50 39.5196 49.8946 39.7071 49.7071C39.8946 49.5196 40 49.2652 40 49V17C40 16.7348 39.8946 16.4804 39.7071 16.2929C39.5196 16.1054 39.2652 16 39 16ZM38 48H8V18H38V48ZM54 80H40V78H54V80ZM60 85H40V83H60V85ZM54 90H40V88H54V90ZM6 56H40V58H6V56ZM6 64H34V66H6V64Z" fill="url(#paint0_radial_160_95)"/>
<defs>
<radialGradient id="paint0_radial_160_95" cx="0" cy="0" r="1" gradientUnits="userSpaceOnUse" gradientTransform="rotate(50.0796) scale(127.781 106.919)">
<stop stop-color="#FEB301"/>
<stop offset="0.510417" stop-color="#F36D1C"/>
<stop offset="1" stop-color="#FB196F"/>
</radialGradient>
</defs>
</svg>
