<svg width="82" height="98" viewBox="0 0 82 98" fill="none" xmlns="http://www.w3.org/2000/svg">
<path d="M81 3H74V0H72V3H66V0H64V3H58V0H56V3H50V0H48V3H42V0H40V3H34V0H32V3H26V0H24V3H18V0H16V3H10V0H8V3H1C0.734784 3 0.48043 3.10536 0.292893 3.29289C0.105357 3.48043 0 3.73478 0 4L0 97C0 97.2652 0.105357 97.5196 0.292893 97.7071C0.48043 97.8946 0.734784 98 1 98H81C81.2652 98 81.5196 97.8946 81.7071 97.7071C81.8946 97.5196 82 97.2652 82 97V4C82 3.73478 81.8946 3.48043 81.7071 3.29289C81.5196 3.10536 81.2652 3 81 3ZM80 96H2V5H8V8H10V5H16V8H18V5H24V8H26V5H32V8H34V5H40V8H42V5H48V8H50V5H56V8H58V5H64V8H66V5H72V8H74V5H80V96ZM73 14H9C8.73478 14 8.48043 14.1054 8.29289 14.2929C8.10536 14.4804 8 14.7348 8 15V57C8 57.2652 8.10536 57.5196 8.29289 57.7071C8.48043 57.8946 8.73478 58 9 58H73C73.2652 58 73.5196 57.8946 73.7071 57.7071C73.8946 57.5196 74 57.2652 74 57V15C74 14.7348 73.8946 14.4804 73.7071 14.2929C73.5196 14.1054 73.2652 14 73 14ZM72 16V47.59L57.71 33.29C57.617 33.1963 57.5064 33.1219 57.3846 33.0711C57.2627 33.0203 57.132 32.9942 57 32.9942C56.868 32.9942 56.7373 33.0203 56.6154 33.0711C56.4936 33.1219 56.383 33.1963 56.29 33.29L45 44.59L26.71 26.29C26.617 26.1963 26.5064 26.1219 26.3846 26.0711C26.2627 26.0203 26.132 25.9942 26 25.9942C25.868 25.9942 25.7373 26.0203 25.6154 26.0711C25.4936 26.1219 25.383 26.1963 25.29 26.29L10 41.59V16H72ZM56.41 56L52.71 52.29L51.29 53.71L53.59 56H10V44.41L26 28.41L48.29 50.71L49.71 49.29L46.41 46L57 35.41L72 50.41V56H56.41ZM45 34C46.3845 34 47.7378 33.5895 48.889 32.8203C50.0401 32.0511 50.9373 30.9579 51.4672 29.6788C51.997 28.3997 52.1356 26.9922 51.8655 25.6344C51.5954 24.2765 50.9287 23.0292 49.9497 22.0503C48.9708 21.0713 47.7235 20.4046 46.3656 20.1345C45.0078 19.8644 43.6003 20.003 42.3212 20.5328C41.0421 21.0627 39.9489 21.9599 39.1797 23.111C38.4105 24.2622 38 25.6155 38 27C38 28.8565 38.7375 30.637 40.0503 31.9497C41.363 33.2625 43.1435 34 45 34ZM45 22C45.9889 22 46.9556 22.2932 47.7779 22.8427C48.6001 23.3921 49.241 24.173 49.6194 25.0866C49.9978 26.0002 50.0969 27.0055 49.9039 27.9755C49.711 28.9454 49.2348 29.8363 48.5355 30.5355C47.8363 31.2348 46.9454 31.711 45.9755 31.9039C45.0055 32.0969 44.0002 31.9978 43.0866 31.6194C42.173 31.241 41.3921 30.6001 40.8427 29.7779C40.2932 28.9556 40 27.9889 40 27C40 25.6739 40.5268 24.4021 41.4645 23.4645C42.4021 22.5268 43.6739 22 45 22ZM17 64H9C8.73478 64 8.48043 64.1054 8.29289 64.2929C8.10536 64.4804 8 64.7348 8 65V73C8 73.2652 8.10536 73.5196 8.29289 73.7071C8.48043 73.8946 8.73478 74 9 74H17C17.2652 74 17.5196 73.8946 17.7071 73.7071C17.8946 73.5196 18 73.2652 18 73V65C18 64.7348 17.8946 64.4804 17.7071 64.2929C17.5196 64.1054 17.2652 64 17 64ZM16 72H10V66H16V72ZM31 64H23C22.7348 64 22.4804 64.1054 22.2929 64.2929C22.1054 64.4804 22 64.7348 22 65V73C22 73.2652 22.1054 73.5196 22.2929 73.7071C22.4804 73.8946 22.7348 74 23 74H31C31.2652 74 31.5196 73.8946 31.7071 73.7071C31.8946 73.5196 32 73.2652 32 73V65C32 64.7348 31.8946 64.4804 31.7071 64.2929C31.5196 64.1054 31.2652 64 31 64ZM30 72H24V66H30V72ZM45 64H37C36.7348 64 36.4804 64.1054 36.2929 64.2929C36.1054 64.4804 36 64.7348 36 65V73C36 73.2652 36.1054 73.5196 36.2929 73.7071C36.4804 73.8946 36.7348 74 37 74H45C45.2652 74 45.5196 73.8946 45.7071 73.7071C45.8946 73.5196 46 73.2652 46 73V65C46 64.7348 45.8946 64.4804 45.7071 64.2929C45.5196 64.1054 45.2652 64 45 64ZM44 72H38V66H44V72ZM59 64H51C50.7348 64 50.4804 64.1054 50.2929 64.2929C50.1054 64.4804 50 64.7348 50 65V73C50 73.2652 50.1054 73.5196 50.2929 73.7071C50.4804 73.8946 50.7348 74 51 74H59C59.2652 74 59.5196 73.8946 59.7071 73.7071C59.8946 73.5196 60 73.2652 60 73V65C60 64.7348 59.8946 64.4804 59.7071 64.2929C59.5196 64.1054 59.2652 64 59 64ZM58 72H52V66H58V72ZM73 64H65C64.7348 64 64.4804 64.1054 64.2929 64.2929C64.1054 64.4804 64 64.7348 64 65V73C64 73.2652 64.1054 73.5196 64.2929 73.7071C64.4804 73.8946 64.7348 74 65 74H73C73.2652 74 73.5196 73.8946 73.7071 73.7071C73.8946 73.5196 74 73.2652 74 73V65C74 64.7348 73.8946 64.4804 73.7071 64.2929C73.5196 64.1054 73.2652 64 73 64ZM72 72H66V66H72V72ZM17 80H9C8.73478 80 8.48043 80.1054 8.29289 80.2929C8.10536 80.4804 8 80.7348 8 81V89C8 89.2652 8.10536 89.5196 8.29289 89.7071C8.48043 89.8946 8.73478 90 9 90H17C17.2652 90 17.5196 89.8946 17.7071 89.7071C17.8946 89.5196 18 89.2652 18 89V81C18 80.7348 17.8946 80.4804 17.7071 80.2929C17.5196 80.1054 17.2652 80 17 80ZM16 88H10V82H16V88ZM31 80H23C22.7348 80 22.4804 80.1054 22.2929 80.2929C22.1054 80.4804 22 80.7348 22 81V89C22 89.2652 22.1054 89.5196 22.2929 89.7071C22.4804 89.8946 22.7348 90 23 90H31C31.2652 90 31.5196 89.8946 31.7071 89.7071C31.8946 89.5196 32 89.2652 32 89V81C32 80.7348 31.8946 80.4804 31.7071 80.2929C31.5196 80.1054 31.2652 80 31 80ZM30 88H24V82H30V88ZM45 80H37C36.7348 80 36.4804 80.1054 36.2929 80.2929C36.1054 80.4804 36 80.7348 36 81V89C36 89.2652 36.1054 89.5196 36.2929 89.7071C36.4804 89.8946 36.7348 90 37 90H45C45.2652 90 45.5196 89.8946 45.7071 89.7071C45.8946 89.5196 46 89.2652 46 89V81C46 80.7348 45.8946 80.4804 45.7071 80.2929C45.5196 80.1054 45.2652 80 45 80ZM44 88H38V82H44V88ZM59 80H51C50.7348 80 50.4804 80.1054 50.2929 80.2929C50.1054 80.4804 50 80.7348 50 81V89C50 89.2652 50.1054 89.5196 50.2929 89.7071C50.4804 89.8946 50.7348 90 51 90H59C59.2652 90 59.5196 89.8946 59.7071 89.7071C59.8946 89.5196 60 89.2652 60 89V81C60 80.7348 59.8946 80.4804 59.7071 80.2929C59.5196 80.1054 59.2652 80 59 80ZM58 88H52V82H58V88ZM73 80H65C64.7348 80 64.4804 80.1054 64.2929 80.2929C64.1054 80.4804 64 80.7348 64 81V89C64 89.2652 64.1054 89.5196 64.2929 89.7071C64.4804 89.8946 64.7348 90 65 90H73C73.2652 90 73.5196 89.8946 73.7071 89.7071C73.8946 89.5196 74 89.2652 74 89V81C74 80.7348 73.8946 80.4804 73.7071 80.2929C73.5196 80.1054 73.2652 80 73 80ZM72 88H66V82H72V88Z" fill="url(#paint0_radial_160_111)"/>
<defs>
<radialGradient id="paint0_radial_160_111" cx="0" cy="0" r="1" gradientUnits="userSpaceOnUse" gradientTransform="rotate(50.0796) scale(127.781 106.919)">
<stop stop-color="#FEB301"/>
<stop offset="0.510417" stop-color="#F36D1C"/>
<stop offset="1" stop-color="#FB196F"/>
</radialGradient>
</defs>
</svg>
