<svg width="82" height="98" viewBox="0 0 82 98" fill="none" xmlns="http://www.w3.org/2000/svg">
<path d="M5 46H7V57H5V46ZM5 81H7V60H5V81ZM23 71.59L17.71 66.29L16.29 67.71L22.29 73.71C22.383 73.8037 22.4936 73.8781 22.6154 73.9289C22.7373 73.9797 22.868 74.0058 23 74.0058C23.132 74.0058 23.2627 73.9797 23.3846 73.9289C23.5064 73.8781 23.617 73.8037 23.71 73.71L35.71 61.71L34.29 60.29L23 71.59ZM33 22C33.1316 22.0008 33.2621 21.9755 33.3839 21.9258C33.5057 21.876 33.6166 21.8027 33.71 21.71L41.71 13.71L40.29 12.29L33 19.59L29.71 16.29L28.29 17.71L32.29 21.71C32.3834 21.8027 32.4943 21.876 32.6161 21.9258C32.7379 21.9755 32.8684 22.0008 33 22ZM18 17C18 13.6377 18.997 10.3509 20.865 7.55531C22.733 4.75968 25.388 2.58075 28.4944 1.29406C31.6007 0.00736582 35.0189 -0.329291 38.3165 0.326658C41.6142 0.982607 44.6433 2.6017 47.0208 4.97919C49.3983 7.35668 51.0174 10.3858 51.6734 13.6835C52.3293 16.9811 51.9926 20.3993 50.706 23.5056C49.4193 26.612 47.2403 29.267 44.4447 31.135C41.6491 33.003 38.3623 34 35 34C30.4913 34 26.1673 32.2089 22.9792 29.0208C19.7911 25.8327 18 21.5087 18 17ZM20 17C20 19.9667 20.8797 22.8668 22.528 25.3336C24.1762 27.8003 26.5189 29.7229 29.2597 30.8582C32.0006 31.9935 35.0166 32.2906 37.9264 31.7118C40.8361 31.133 43.5088 29.7044 45.6066 27.6066C47.7044 25.5088 49.133 22.8361 49.7118 19.9264C50.2906 17.0166 49.9935 14.0006 48.8582 11.2598C47.7229 8.51886 45.8003 6.17618 43.3336 4.52796C40.8668 2.87974 37.9667 2.00001 35 2.00001C31.0218 2.00001 27.2064 3.58036 24.3934 6.39341C21.5804 9.20645 20 13.0218 20 17ZM64 26C64 25.2089 64.2346 24.4355 64.6741 23.7777C65.1136 23.1199 65.7384 22.6072 66.4693 22.3045C67.2002 22.0017 68.0044 21.9225 68.7804 22.0769C69.5563 22.2312 70.269 22.6122 70.8284 23.1716C71.3878 23.731 71.7688 24.4437 71.9231 25.2196C72.0775 25.9956 71.9983 26.7998 71.6955 27.5307C71.3928 28.2616 70.8801 28.8864 70.2223 29.3259C69.5645 29.7654 68.7911 30 68 30C66.9391 30 65.9217 29.5786 65.1716 28.8284C64.4214 28.0783 64 27.0609 64 26ZM66 26C66 26.3956 66.1173 26.7823 66.3371 27.1111C66.5568 27.44 66.8692 27.6964 67.2346 27.8478C67.6001 27.9991 68.0022 28.0387 68.3902 27.9616C68.7781 27.8844 69.1345 27.6939 69.4142 27.4142C69.6939 27.1345 69.8844 26.7782 69.9616 26.3902C70.0387 26.0022 69.9991 25.6001 69.8478 25.2346C69.6964 24.8692 69.44 24.5568 69.1111 24.3371C68.7822 24.1173 68.3956 24 68 24C67.4696 24 66.9609 24.2107 66.5858 24.5858C66.2107 24.9609 66 25.4696 66 26ZM55 17C55 16.2089 55.2346 15.4355 55.6741 14.7777C56.1136 14.1199 56.7384 13.6072 57.4693 13.3045C58.2002 13.0017 59.0044 12.9225 59.7804 13.0769C60.5563 13.2312 61.269 13.6122 61.8284 14.1716C62.3878 14.731 62.7688 15.4437 62.9231 16.2196C63.0775 16.9956 62.9983 17.7998 62.6955 18.5307C62.3928 19.2616 61.8801 19.8864 61.2223 20.3259C60.5645 20.7654 59.7911 21 59 21C57.9391 21 56.9217 20.5786 56.1716 19.8284C55.4214 19.0783 55 18.0609 55 17ZM57 17C57 17.3956 57.1173 17.7823 57.3371 18.1111C57.5568 18.44 57.8692 18.6964 58.2346 18.8478C58.6001 18.9991 59.0022 19.0387 59.3902 18.9616C59.7781 18.8844 60.1345 18.6939 60.4142 18.4142C60.6939 18.1345 60.8844 17.7782 60.9616 17.3902C61.0387 17.0022 60.9991 16.6001 60.8478 16.2346C60.6964 15.8692 60.44 15.5568 60.1111 15.3371C59.7822 15.1173 59.3956 15 59 15C58.4696 15 57.9609 15.2107 57.5858 15.5858C57.2107 15.9609 57 16.4696 57 17ZM71 34C71.7911 34 72.5645 34.2346 73.2223 34.6741C73.8801 35.1137 74.3928 35.7384 74.6955 36.4693C74.9983 37.2002 75.0775 38.0044 74.9231 38.7804C74.7688 39.5563 74.3878 40.269 73.8284 40.8284C73.269 41.3878 72.5563 41.7688 71.7804 41.9231C71.0044 42.0775 70.2002 41.9983 69.4693 41.6955C68.7384 41.3928 68.1136 40.8801 67.6741 40.2223C67.2346 39.5645 67 38.7911 67 38C67 36.9391 67.4214 35.9217 68.1716 35.1716C68.9217 34.4214 69.9391 34 71 34ZM71 36C70.6044 36 70.2178 36.1173 69.8889 36.3371C69.56 36.5568 69.3036 36.8692 69.1522 37.2346C69.0009 37.6001 68.9613 38.0022 69.0384 38.3902C69.1156 38.7782 69.3061 39.1345 69.5858 39.4142C69.8655 39.6939 70.2219 39.8844 70.6098 39.9616C70.9978 40.0387 71.3999 39.9991 71.7654 39.8478C72.1308 39.6964 72.4432 39.44 72.6629 39.1111C72.8827 38.7822 73 38.3956 73 38C73 37.4696 72.7893 36.9609 72.4142 36.5858C72.0391 36.2107 71.5304 36 71 36ZM82 56C82 58.9174 80.8411 61.7153 78.7782 63.7782C76.7153 65.8411 73.9174 67 71 67C70.66 67 70.33 67 70 67V81C70 82.8565 69.2625 84.637 67.9497 85.9498C66.637 87.2625 64.8565 88 63 88H52V91C52 92.8565 51.2625 94.637 49.9497 95.9498C48.637 97.2625 46.8565 98 45 98H7C5.14348 98 3.36301 97.2625 2.05025 95.9498C0.737498 94.637 0 92.8565 0 91L0 41C0 40.7348 0.105357 40.4804 0.292893 40.2929C0.48043 40.1054 0.734784 40 1 40H51C51.2652 40 51.5196 40.1054 51.7071 40.2929C51.8946 40.4804 52 40.7348 52 41V50H61.81C63.1085 48.0259 65.0081 46.5225 67.2276 45.7121C69.4472 44.9018 71.8687 44.8277 74.1336 45.5008C76.3985 46.1739 78.3865 47.5584 79.8033 49.4493C81.2201 51.3403 81.9903 53.6372 82 56ZM52 52V54H62.85C63.6846 54.0026 64.4843 54.3354 65.0745 54.9255C65.6646 55.5157 65.9974 56.3154 66 57.15V63.48C66.623 63.8944 67.2947 64.2303 68 64.48V57C68 55.6739 67.4732 54.4022 66.5355 53.4645C65.5979 52.5268 64.3261 52 63 52H52ZM52 82H62.85C63.1542 81.9974 63.4452 81.8754 63.6603 81.6603C63.8754 81.4452 63.9974 81.1542 64 80.85V64.48C62.7497 63.4485 61.7427 62.1535 61.0513 60.6875C60.3598 59.2216 60.0008 57.6209 60 56H52V82ZM64 57.15C63.9974 56.8458 63.8754 56.5548 63.6603 56.3397C63.4452 56.1246 63.1542 56.0026 62.85 56H62C61.9965 58.0544 62.7031 60.0468 64 61.64V57.15ZM50 87V42H2V91C2 91.6566 2.12933 92.3068 2.3806 92.9134C2.63188 93.5201 3.00017 94.0713 3.46447 94.5355C3.92876 94.9998 4.47995 95.3681 5.08658 95.6194C5.69321 95.8707 6.34339 96 7 96H45C45.6566 96 46.3068 95.8707 46.9134 95.6194C47.52 95.3681 48.0712 94.9998 48.5355 94.5355C48.9998 94.0713 49.3681 93.5201 49.6194 92.9134C49.8707 92.3068 50 91.6566 50 91V87ZM68 66.57C67.3085 66.379 66.6383 66.1176 66 65.79V80.85C65.9974 81.6846 65.6646 82.4843 65.0745 83.0745C64.4843 83.6646 63.6846 83.9974 62.85 84H52V86H63C64.3261 86 65.5979 85.4732 66.5355 84.5355C67.4732 83.5979 68 82.3261 68 81V66.57ZM80 56C79.9942 54.1705 79.4309 52.3862 78.3853 50.8849C77.3396 49.3836 75.8613 48.2367 74.1473 47.5969C72.4333 46.9571 70.5649 46.8549 68.7914 47.3039C67.0178 47.7529 65.4232 48.7318 64.22 50.11C65.8393 50.3966 67.306 51.2442 68.3628 52.504C69.4197 53.7638 69.9993 55.3556 70 57V64.94C70.3318 64.9802 70.6658 65.0003 71 65C72.1819 65 73.3522 64.7672 74.4442 64.3149C75.5361 63.8626 76.5282 63.1997 77.364 62.364C78.1997 61.5282 78.8626 60.5361 79.3149 59.4442C79.7672 58.3522 80 57.1819 80 56Z" fill="url(#paint0_radial_163_113)"/>
<defs>
<radialGradient id="paint0_radial_163_113" cx="0" cy="0" r="1" gradientUnits="userSpaceOnUse" gradientTransform="rotate(50.0796) scale(127.781 106.919)">
<stop stop-color="#FEB301"/>
<stop offset="0.510417" stop-color="#F36D1C"/>
<stop offset="1" stop-color="#FB196F"/>
</radialGradient>
</defs>
</svg>
