<svg width="83" height="99" viewBox="0 0 83 99" fill="none" xmlns="http://www.w3.org/2000/svg">
<path d="M28.29 62.7099L22.29 56.7099L23.71 55.2899L29 60.5899L40.29 49.2899L41.71 50.7099L29.71 62.7099C29.617 62.8037 29.5064 62.8781 29.3846 62.9288C29.2627 62.9796 29.132 63.0057 29 63.0057C28.868 63.0057 28.7373 62.9796 28.6154 62.9288C28.4936 62.8781 28.383 62.8037 28.29 62.7099ZM81.83 72.5599L79.83 75.4699L81 78.8099C81.0613 79.0013 81.0636 79.2066 81.0065 79.3993C80.9494 79.5919 80.8357 79.7629 80.68 79.8899L77.99 82.1099L78 85.6299C78.0172 85.8384 77.9685 86.0471 77.8609 86.2265C77.7532 86.4058 77.592 86.547 77.4 86.6299L74.2 87.9899L73.31 91.3899C73.2591 91.5844 73.1508 91.7591 72.9992 91.8911C72.8475 92.0231 72.6596 92.1063 72.46 92.1299L69.01 92.5299L67.22 95.5299C67.1179 95.6979 66.9687 95.832 66.7908 95.9156C66.613 95.9992 66.4144 96.0285 66.22 95.9999L62.8 95.4099L60.24 97.7699C60.0556 97.9426 59.8126 98.0391 59.56 98.0399C59.4043 98.0421 59.2502 98.0079 59.11 97.9399L56 96.3499L52.89 97.8999C52.7484 97.9636 52.5952 97.9976 52.44 97.9999H12C11.7481 98.0007 11.5051 97.9064 11.3197 97.7359C11.1343 97.5653 11.0202 97.3311 11 97.0799L9.15 74.8899C8.55331 74.7318 8.01994 74.3934 7.62264 73.9209C7.22535 73.4484 6.98347 72.8649 6.93 72.2499L4.34 41.2499C4.31088 40.8408 4.36596 40.4301 4.50184 40.0431C4.63771 39.6561 4.85151 39.3011 5.13 38.9999C5.4099 38.6983 5.75078 38.4597 6.13 38.2999L5.08 25.9999H4C3.73478 25.9999 3.48043 25.8946 3.29289 25.707C3.10536 25.5195 3 25.2652 3 24.9999V17.9999H1C0.734785 17.9999 0.480431 17.8946 0.292895 17.707C0.105358 17.5195 1.40967e-06 17.2652 1.40967e-06 16.9999C-0.00114005 14.9597 0.690953 12.9797 1.96281 11.3844C3.23466 9.78912 5.0108 8.67332 7 8.21994C7.19566 5.97066 8.22958 3.87708 9.89667 2.35447C11.5638 0.831856 13.7422 -0.0085521 16 -5.83102e-05H48C50.2578 -0.0085521 52.4362 0.831856 54.1033 2.35447C55.7704 3.87708 56.8043 5.97066 57 8.21994C58.9892 8.67332 60.7653 9.78912 62.0372 11.3844C63.309 12.9797 64.0011 14.9597 64 16.9999C64 17.2652 63.8946 17.5195 63.7071 17.707C63.5196 17.8946 63.2652 17.9999 63 17.9999H61V24.9999C61 25.2652 60.8946 25.5195 60.7071 25.707C60.5196 25.8946 60.2652 25.9999 60 25.9999H58.92L57.92 38.2699C58.2992 38.4297 58.6401 38.6683 58.92 38.9699C59.2023 39.2746 59.4184 39.6345 59.5543 40.027C59.6903 40.4195 59.7433 40.8359 59.71 41.2499L59.31 46.0599C59.4802 46.0018 59.6629 45.9906 59.8388 46.0276C60.0148 46.0645 60.1776 46.1483 60.31 46.2699L62.87 48.6299L66.22 47.9999C66.4144 47.9714 66.613 48.0007 66.7908 48.0843C66.9687 48.1679 67.1179 48.302 67.22 48.4699L69.01 51.4699L72.46 51.8699C72.6596 51.8936 72.8475 51.9768 72.9992 52.1088C73.1508 52.2408 73.2591 52.4154 73.31 52.6099L74.2 56.0099L77.4 57.3799C77.5821 57.4593 77.7363 57.5911 77.8432 57.7585C77.9501 57.926 78.0046 58.1214 78 58.3199L77.91 61.8399L80.6 64.0599C80.7798 64.1798 80.916 64.3547 80.9881 64.5584C81.0602 64.7621 81.0644 64.9837 81 65.1899L79.92 68.5399L81.92 71.4399C82.0189 71.6142 82.0632 71.8141 82.0472 72.0138C82.0311 72.2135 81.9555 72.4037 81.83 72.5599ZM9.07 7.99994H54.93C54.6895 6.33364 53.8565 4.80984 52.5837 3.70785C51.3109 2.60586 49.6836 1.99951 48 1.99994H16C14.3164 1.99951 12.6891 2.60586 11.4163 3.70785C10.1435 4.80984 9.31051 6.33364 9.07 7.99994ZM2.07 15.9999H61.93C61.6895 14.3336 60.8565 12.8098 59.5837 11.7079C58.3109 10.6059 56.6836 9.99951 55 9.99994H9C7.31643 9.99951 5.68911 10.6059 4.41631 11.7079C3.14351 12.8098 2.31051 14.3336 2.07 15.9999ZM5 23.9999H59V17.9999H5V23.9999ZM7.09 25.9999L8.09 37.9999H55.91L56.91 25.9999H7.09ZM8.92 72.0799C8.94015 72.3311 9.05434 72.5653 9.23974 72.7359C9.42514 72.9064 9.66808 73.0007 9.92 72.9999H54.08C54.3319 73.0007 54.5749 72.9064 54.7603 72.7359C54.9457 72.5653 55.0598 72.3311 55.08 72.0799L57.66 41.0799C57.6711 40.9421 57.6534 40.8034 57.6081 40.6726C57.5629 40.5419 57.491 40.422 57.397 40.3205C57.303 40.219 57.189 40.1381 57.0621 40.0829C56.9353 40.0278 56.7983 39.9995 56.66 39.9999H7.33C7.19167 39.9995 7.05475 40.0278 6.9279 40.0829C6.80104 40.1381 6.68702 40.219 6.59304 40.3205C6.49905 40.422 6.42715 40.5419 6.38187 40.6726C6.3366 40.8034 6.31893 40.9421 6.33 41.0799L8.92 72.0799ZM51.08 95.9999L51.66 88.9999H43V86.9999H51.83L52.83 74.9999H11.17L12.17 86.9999H37V88.9999H12.34L12.92 95.9999H51.08ZM77.94 74.7499L79.79 71.9999L77.94 69.2499C77.8566 69.1248 77.8026 68.9825 77.7818 68.8336C77.761 68.6847 77.7741 68.5331 77.82 68.3899L78.82 65.2199L76.28 63.1199C76.1631 63.0227 76.07 62.9002 76.0076 62.7615C75.9452 62.6229 75.9153 62.4719 75.92 62.3199L76 58.9999L73 57.7099C72.8602 57.6491 72.7362 57.5571 72.6374 57.441C72.5386 57.3249 72.4677 57.1877 72.43 57.0399L71.59 53.8299L68.33 53.4499C68.1773 53.4307 68.031 53.3765 67.9027 53.2915C67.7743 53.2065 67.6673 53.0931 67.59 52.9599L65.89 50.1299L62.66 50.6899C62.5086 50.7164 62.3532 50.7076 62.2058 50.6642C62.0584 50.6209 61.923 50.5441 61.81 50.4399L59.39 48.1999L59.06 48.3599L58.33 57.1799C61.0458 57.6076 63.5919 58.7733 65.69 60.5499L64.4 62.0699C62.6198 60.5597 60.4632 59.5609 58.16 59.1799L57.07 72.2499C57.0165 72.8649 56.7747 73.4484 56.3774 73.9209C55.9801 74.3934 55.4467 74.7318 54.85 74.8899L54 84.8299C56.4301 85.2073 58.9174 84.8876 61.1731 83.908C63.4289 82.9283 65.3604 81.329 66.7436 79.2956C68.1268 77.2622 68.9048 74.8781 68.9874 72.4203C69.0699 69.9624 68.4536 67.5316 67.21 65.4099L68.93 64.4099C70.2664 66.6881 70.9777 69.2787 70.9918 71.9198C71.0059 74.561 70.3224 77.1591 69.0103 79.4513C67.6983 81.7436 65.8042 83.6488 63.5197 84.9743C61.2352 86.2998 58.6412 86.9985 56 86.9999C55.2802 86.9934 54.5618 86.9366 53.85 86.8299L53.12 95.5399L55.56 94.3399C55.697 94.2728 55.8475 94.2379 56 94.2379C56.1525 94.2379 56.303 94.2728 56.44 94.3399L59.38 95.7999L61.8 93.5599C61.9129 93.4558 62.0484 93.379 62.1958 93.3357C62.3432 93.2923 62.4986 93.2835 62.65 93.3099L65.88 93.8699L67.58 90.9999C67.6584 90.8687 67.7659 90.7572 67.8942 90.6739C68.0225 90.5907 68.1682 90.538 68.32 90.5199L71.58 90.1299L72.41 86.9999C72.4455 86.8447 72.5176 86.7002 72.6202 86.5785C72.7228 86.4567 72.853 86.3612 73 86.2999L76 84.9999L75.91 81.6799C75.9053 81.528 75.9352 81.377 75.9976 81.2384C76.06 81.0997 76.1531 80.9771 76.27 80.8799L78.81 78.7799L77.81 75.6199C77.7639 75.4746 77.7517 75.3207 77.7742 75.1699C77.7967 75.0191 77.8534 74.8755 77.94 74.7499Z" fill="url(#paint0_radial_163_115)"/>
<defs>
<radialGradient id="paint0_radial_163_115" cx="0" cy="0" r="1" gradientUnits="userSpaceOnUse" gradientTransform="rotate(50.0796) scale(127.781 106.941)">
<stop stop-color="#FEB301"/>
<stop offset="0.510417" stop-color="#F36D1C"/>
<stop offset="1" stop-color="#FB196F"/>
</radialGradient>
</defs>
</svg>
