<svg width="82" height="98" viewBox="0 0 82 98" fill="none" xmlns="http://www.w3.org/2000/svg">
<path d="M81 36H62V6C62 5.73478 61.8946 5.48043 61.7071 5.29289C61.5196 5.10536 61.2652 5 61 5H46V1C46 0.734784 45.8946 0.48043 45.7071 0.292893C45.5196 0.105357 45.2652 0 45 0L37 0C36.7348 0 36.4804 0.105357 36.2929 0.292893C36.1054 0.48043 36 0.734784 36 1V5H21C20.7348 5 20.4804 5.10536 20.2929 5.29289C20.1054 5.48043 20 5.73478 20 6V32.9L7.15 31C7.00668 30.9782 6.86034 30.9879 6.72113 31.0283C6.58191 31.0687 6.45315 31.1389 6.34376 31.2341C6.23437 31.3292 6.14697 31.447 6.08761 31.5792C6.02825 31.7115 5.99836 31.855 6 32V36H1C0.734784 36 0.48043 36.1054 0.292893 36.2929C0.105357 36.4804 0 36.7348 0 37L0 97C0 97.2652 0.105357 97.5196 0.292893 97.7071C0.48043 97.8946 0.734784 98 1 98H81C81.2652 98 81.5196 97.8946 81.7071 97.7071C81.8946 97.5196 82 97.2652 82 97V37C82 36.7348 81.8946 36.4804 81.7071 36.2929C81.5196 36.1054 81.2652 36 81 36ZM62 58V44H74V64H48V59H61C61.2652 59 61.5196 58.8946 61.7071 58.7071C61.8946 58.5196 62 58.2652 62 58ZM38 2H44V10H38V2ZM22 7H36V11C36 11.2652 36.1054 11.5196 36.2929 11.7071C36.4804 11.8946 36.7348 12 37 12H45C45.2652 12 45.5196 11.8946 45.7071 11.7071C45.8946 11.5196 46 11.2652 46 11V7H60V57H22V7ZM21 59H34V88.9L14 86V40.1L20 41V58C20 58.2652 20.1054 58.5196 20.2929 58.7071C20.4804 58.8946 20.7348 59 21 59ZM8 33.16L20 34.92V38.92L13.15 37.92C12.9997 37.8965 12.846 37.9077 12.7006 37.9526C12.5553 37.9975 12.4221 38.0749 12.3112 38.1791C12.2003 38.2832 12.1146 38.4113 12.0607 38.5536C12.0068 38.6958 11.986 38.8485 12 39V86.82C11.9973 87.0612 12.0818 87.2952 12.238 87.479C12.3942 87.6627 12.6115 87.7838 12.85 87.82L34.85 91.05H35C35.2383 91.05 35.4689 90.9649 35.65 90.81C35.7598 90.7161 35.8479 90.5996 35.9083 90.4684C35.9687 90.3372 36 90.1944 36 90.05V59H40V95.84L8 91.14V33.16ZM2 38H6V92C5.99727 92.2412 6.0818 92.4752 6.238 92.659C6.3942 92.8427 6.61155 92.9638 6.85 93L27.33 96H2V38ZM80 96H42V59H46V65C46 65.2652 46.1054 65.5196 46.2929 65.7071C46.4804 65.8946 46.7348 66 47 66H75C75.2652 66 75.5196 65.8946 75.7071 65.7071C75.8946 65.5196 76 65.2652 76 65V43C76 42.7348 75.8946 42.4804 75.7071 42.2929C75.5196 42.1054 75.2652 42 75 42H62V38H80V96ZM50 70C49.2089 70 48.4355 70.2346 47.7777 70.6741C47.1199 71.1136 46.6072 71.7384 46.3045 72.4693C46.0017 73.2002 45.9225 74.0044 46.0769 74.7804C46.2312 75.5563 46.6122 76.269 47.1716 76.8284C47.731 77.3878 48.4437 77.7688 49.2196 77.9231C49.9956 78.0775 50.7998 77.9983 51.5307 77.6955C52.2616 77.3928 52.8864 76.8801 53.3259 76.2223C53.7654 75.5645 54 74.7911 54 74C54 72.9391 53.5786 71.9217 52.8284 71.1716C52.0783 70.4214 51.0609 70 50 70ZM50 76C49.6044 76 49.2178 75.8827 48.8889 75.6629C48.56 75.4432 48.3036 75.1308 48.1522 74.7654C48.0009 74.3999 47.9613 73.9978 48.0384 73.6098C48.1156 73.2219 48.3061 72.8655 48.5858 72.5858C48.8655 72.3061 49.2219 72.1156 49.6098 72.0384C49.9978 71.9613 50.3999 72.0009 50.7654 72.1522C51.1308 72.3036 51.4432 72.56 51.6629 72.8889C51.8827 73.2178 52 73.6044 52 74C52 74.5304 51.7893 75.0391 51.4142 75.4142C51.0391 75.7893 50.5304 76 50 76ZM56 70H76V72H56V70ZM68 78H56V76H68V78ZM50 82C49.2089 82 48.4355 82.2346 47.7777 82.6741C47.1199 83.1136 46.6072 83.7384 46.3045 84.4693C46.0017 85.2002 45.9225 86.0044 46.0769 86.7804C46.2312 87.5563 46.6122 88.269 47.1716 88.8284C47.731 89.3878 48.4437 89.7688 49.2196 89.9231C49.9956 90.0775 50.7998 89.9983 51.5307 89.6955C52.2616 89.3928 52.8864 88.8801 53.3259 88.2223C53.7654 87.5645 54 86.7911 54 86C54 84.9391 53.5786 83.9217 52.8284 83.1716C52.0783 82.4214 51.0609 82 50 82ZM50 88C49.6044 88 49.2178 87.8827 48.8889 87.6629C48.56 87.4432 48.3036 87.1308 48.1522 86.7654C48.0009 86.3999 47.9613 85.9978 48.0384 85.6098C48.1156 85.2219 48.3061 84.8655 48.5858 84.5858C48.8655 84.3061 49.2219 84.1156 49.6098 84.0384C49.9978 83.9613 50.3999 84.0009 50.7654 84.1522C51.1308 84.3036 51.4432 84.56 51.6629 84.8889C51.8827 85.2178 52 85.6044 52 86C52 86.5304 51.7893 87.0391 51.4142 87.4142C51.0391 87.7893 50.5304 88 50 88ZM56 82H76V84H56V82ZM56 88H68V90H56V88ZM41 15C38.0333 15 35.1332 15.8797 32.6664 17.528C30.1997 19.1762 28.2771 21.5189 27.1418 24.2597C26.0065 27.0006 25.7094 30.0166 26.2882 32.9264C26.867 35.8361 28.2956 38.5088 30.3934 40.6066C32.4912 42.7044 35.1639 44.133 38.0736 44.7118C40.9834 45.2906 43.9994 44.9935 46.7402 43.8582C49.4811 42.7229 51.8238 40.8003 53.472 38.3336C55.1203 35.8668 56 32.9667 56 30C56 26.0218 54.4196 22.2064 51.6066 19.3934C48.7936 16.5804 44.9782 15 41 15ZM32.89 40.15C33.6248 38.623 34.7757 37.3344 36.2105 36.4326C37.6452 35.5307 39.3054 35.0523 41 35.0523C42.6946 35.0523 44.3548 35.5307 45.7895 36.4326C47.2243 37.3344 48.3752 38.623 49.11 40.15C46.8067 41.9885 43.9471 42.9899 41 42.9899C38.0529 42.9899 35.1933 41.9885 32.89 40.15ZM50.63 38.7C49.6795 36.9783 48.2848 35.5428 46.5911 34.5432C44.8974 33.5436 42.9667 33.0163 41 33.0163C39.0333 33.0163 37.1026 33.5436 35.4089 34.5432C33.7152 35.5428 32.3205 36.9783 31.37 38.7C29.6791 36.8354 28.5659 34.52 28.1655 32.0349C27.7651 29.5498 28.0948 27.0019 29.1146 24.7006C30.1343 22.3993 31.8002 20.4435 33.91 19.0707C36.0199 17.6979 38.4829 16.9671 41 16.9671C43.5171 16.9671 45.9801 17.6979 48.09 19.0707C50.1998 20.4435 51.8657 22.3993 52.8854 24.7006C53.9052 27.0019 54.2349 29.5498 53.8345 32.0349C53.4341 34.52 52.3209 36.8354 50.63 38.7ZM41 21C40.0111 21 39.0444 21.2932 38.2221 21.8427C37.3999 22.3921 36.759 23.173 36.3806 24.0866C36.0022 25.0002 35.9031 26.0055 36.0961 26.9755C36.289 27.9454 36.7652 28.8363 37.4645 29.5355C38.1637 30.2348 39.0546 30.711 40.0245 30.9039C40.9945 31.0969 41.9998 30.9978 42.9134 30.6194C43.827 30.241 44.6079 29.6001 45.1573 28.7779C45.7068 27.9556 46 26.9889 46 26C46 24.6739 45.4732 23.4021 44.5355 22.4645C43.5979 21.5268 42.3261 21 41 21ZM41 29C40.4067 29 39.8266 28.8241 39.3333 28.4944C38.8399 28.1648 38.4554 27.6962 38.2284 27.1481C38.0013 26.5999 37.9419 25.9967 38.0576 25.4147C38.1734 24.8328 38.4591 24.2982 38.8787 23.8787C39.2982 23.4591 39.8328 23.1734 40.4147 23.0576C40.9967 22.9419 41.5999 23.0013 42.148 23.2284C42.6962 23.4554 43.1648 23.8399 43.4944 24.3333C43.8241 24.8266 44 25.4067 44 26C44 26.7956 43.6839 27.5587 43.1213 28.1213C42.5587 28.6839 41.7957 29 41 29ZM26 50H36V52H26V50ZM40 50H56V52H40V50Z" fill="url(#paint0_radial_167_117)"/>
<defs>
<radialGradient id="paint0_radial_167_117" cx="0" cy="0" r="1" gradientUnits="userSpaceOnUse" gradientTransform="rotate(50.0796) scale(127.781 106.919)">
<stop stop-color="#FEB301"/>
<stop offset="0.510417" stop-color="#F36D1C"/>
<stop offset="1" stop-color="#FB196F"/>
</radialGradient>
</defs>
</svg>
