<svg width="68" height="88" viewBox="0 0 68 88" fill="none" xmlns="http://www.w3.org/2000/svg">
<path d="M67.406 17.3262L50.4356 0.567113C50.0668 0.205835 49.569 0.00216015 49.0495 0H1.9802C1.45502 0 0.951254 0.20603 0.579894 0.572767C0.208535 0.939505 0 1.43691 0 1.95556V86.0444C0 86.5631 0.208535 87.0605 0.579894 87.4272C0.951254 87.794 1.45502 88 1.9802 88H66.0197C66.5449 88 67.0487 87.794 67.42 87.4272C67.7914 87.0605 67.9999 86.5631 67.9999 86.0444V18.7147C67.9988 18.4559 67.9458 18.2 67.8438 17.9617C67.7418 17.7233 67.5931 17.5073 67.406 17.3262ZM51.0297 6.66845L61.2278 16.7591H51.0297V6.66845ZM3.9604 84.0889V3.91111H47.0693V18.7147C47.0693 19.2333 47.2779 19.7307 47.6492 20.0975C48.0206 20.4642 48.5244 20.6702 49.0495 20.6702H64.0395V84.0889H3.9604ZM51.4851 59.1556H55.4455C55.4403 61.1438 54.6367 63.0488 53.2113 64.4528C51.7858 65.8569 49.8549 66.6453 47.8417 66.6453H20.297C18.2872 66.6402 16.3611 65.8494 14.94 64.4459C13.5188 63.0424 12.7182 61.1404 12.713 59.1556H16.6734C16.6734 60.1047 17.0549 61.0149 17.7345 61.6861C18.4141 62.3572 19.3359 62.7342 20.297 62.7342H47.8417C48.7908 62.7139 49.6942 62.3285 50.3599 61.6601C51.0256 60.9917 51.4009 60.0931 51.4059 59.1556H51.4851ZM32.6733 55.8311L19.6635 42.9831L22.4752 40.2062L32.0989 49.7298V23.3102H36.0593V49.7298L45.6831 40.2062L48.4752 42.9831L35.4654 55.8311C35.0966 56.1924 34.5986 56.3961 34.0791 56.3982C33.8053 56.4103 33.532 56.3662 33.2764 56.2686C33.0207 56.171 32.7883 56.022 32.594 55.8311H32.6733Z" fill="white"/>
</svg>
