<svg width="24" height="18" viewBox="0 0 24 18" fill="none" xmlns="http://www.w3.org/2000/svg">
<g clip-path="url(#clip0_111_16)">
<path d="M19.8144 1.52588e-05H4.14098C3.03091 1.52588e-05 1.96631 0.445651 1.18137 1.23893C0.396429 2.03221 -0.0445557 3.10813 -0.0445557 4.22999V13.77C0.019059 14.8709 0.48045 15.9098 1.25203 16.6896C2.02361 17.4694 3.05166 17.9357 4.14098 18H19.7699C20.8593 17.9357 21.8873 17.4694 22.6589 16.6896C23.4304 15.9098 23.8918 14.8709 23.9554 13.77V4.22999C23.9555 3.11588 23.5206 2.04672 22.7453 1.25472C21.97 0.462725 20.9168 0.0118675 19.8144 1.52588e-05ZM21.9517 13.77C21.9518 14.0693 21.8928 14.3656 21.7781 14.6416C21.6635 14.9175 21.4955 15.1676 21.284 15.3771C21.0725 15.5867 20.8218 15.7514 20.5466 15.8618C20.2713 15.9722 19.977 16.026 19.6809 16.02H4.14098C3.55052 16.02 2.98424 15.783 2.56672 15.361C2.1492 14.939 1.91464 14.3667 1.91464 13.77V4.22999C1.90872 3.93075 1.96192 3.63334 2.07114 3.35514C2.18037 3.07694 2.34342 2.82357 2.55075 2.60985C2.75808 2.39613 3.00553 2.22637 3.27859 2.11049C3.55164 1.99461 3.84483 1.93496 4.14098 1.93502H19.7699C20.3722 1.93502 20.9498 2.17681 21.3757 2.60721C21.8015 3.0376 22.0408 3.62132 22.0408 4.22999L21.9517 13.77Z" fill="white"/>
<path d="M16.8311 5.76001L17.8107 7.42499L12.512 10.665C12.3631 10.7519 12.1942 10.7977 12.0222 10.7977C11.8503 10.7977 11.6814 10.7519 11.5325 10.665L6.18921 7.42499L7.21334 5.76001L12.0222 8.68502L16.8311 5.76001Z" fill="white"/>
</g>
<defs>
<clipPath id="clip0_111_16">
<rect width="24" height="18" fill="white"/>
</clipPath>
</defs>
</svg>
