<svg width="93" height="80" viewBox="0 0 93 80" fill="none" xmlns="http://www.w3.org/2000/svg">
<path d="M39.6504 0.787913L37.2945 17.4594C33.3545 16.9198 29.3479 17.7203 25.915 19.7328C22.9892 21.6366 20.8436 24.5319 19.8696 27.8903C18.7094 31.901 18.4813 36.125 19.2029 40.2379H39.6504V80H0V40.2379C0 26.1964 3.24493 15.5872 9.73479 8.3213C16.2246 1.05536 26.2261 -1.4409 39.6504 0.787913ZM92.4138 0.787913L90.0579 17.4594C86.1179 16.9198 82.1114 17.7203 78.6784 19.7328C75.7192 21.6208 73.5405 24.518 72.5442 27.8903C71.3988 31.9044 71.1859 36.1284 71.9218 40.2379H92.3249V80H52.7634V40.2379C52.7634 26.1964 56.0084 15.5872 62.4982 8.3213C68.9881 1.05536 78.9896 -1.4409 92.4138 0.787913Z" fill="#474747"/>
</svg>
