<svg width="30" height="25" viewBox="0 0 30 25" fill="none" xmlns="http://www.w3.org/2000/svg">
<path fill-rule="evenodd" clip-rule="evenodd" d="M29.9864 1.75831C29.9094 2.83515 29.295 6.60608 28.6819 10.6765L26.7642 22.7573C26.7642 22.7573 26.6103 24.5263 25.3044 24.8338C23.9985 25.1413 21.8539 23.757 21.4677 23.4495C21.1612 23.2179 15.7147 19.7557 13.7201 18.0626C13.1893 17.6021 12.5695 16.6783 13.7971 15.6015C16.5588 13.0618 19.858 9.90714 21.8513 7.90653C22.7723 6.9841 23.6933 4.82909 19.8606 7.44598L9.04335 14.7549C9.04335 14.7549 7.81579 15.5243 5.51459 14.8321C3.21339 14.1399 0.535289 13.2228 0.535289 13.2228C0.535289 13.2228 -1.3054 12.0688 1.83984 10.8376L19.7133 3.45143C21.477 2.68207 27.461 0.219591 27.461 0.219591C27.461 0.219591 30.216 -0.857247 29.9864 1.75831Z" fill="white" fill-opacity="0.6"/>
</svg>
