<svg width="30" height="18" viewBox="0 0 30 18" fill="none" xmlns="http://www.w3.org/2000/svg">
<path fill-rule="evenodd" clip-rule="evenodd" d="M29.3036 1.22501C29.5196 0.50502 29.3036 0.00103959 28.3316 0.00103959H25.0197C24.7169 -0.0104668 24.4183 0.0737829 24.1662 0.241829C23.9142 0.409876 23.7215 0.653138 23.6157 0.937008C22.6327 3.36288 21.2984 5.6311 19.6557 7.66893C18.8638 8.42492 18.5398 8.67691 18.1078 8.67691C17.6758 8.67691 17.6038 8.42491 17.6038 7.74092V1.22501C17.6038 0.361022 17.3878 0.00103959 16.6678 0.00103959H11.4479C11.2341 -0.00905665 11.0246 0.0640237 10.8636 0.204971C10.7025 0.345918 10.6022 0.543776 10.5839 0.757027C10.5839 1.54902 11.7718 1.76501 11.9158 3.96098V8.78491C11.9158 9.82889 11.7358 10.0089 11.3039 10.0089C10.1879 10.0089 7.4879 5.94096 5.90392 1.26102C5.57993 0.397029 5.25593 0.00103959 4.42794 0.00103959H1.15198C0.179997 0.00103959 0 0.469014 0 0.937008C0.868504 4.88977 2.64309 8.58683 5.18393 11.7369C6.25461 13.4619 7.72086 14.907 9.46124 15.9524C11.2016 16.9979 13.166 17.6137 15.1918 17.7488C17.2798 17.7488 17.5318 17.2808 17.5318 16.4888V13.5729C17.5318 12.6369 17.7118 12.4569 18.3958 12.4569C19.0798 12.4569 19.7277 12.6729 21.6717 14.5448C23.6157 16.4168 24.2637 17.7848 25.4877 17.7848H28.7996C29.7356 17.7848 30.2036 17.3168 29.9156 16.4168C29.2071 14.9907 28.2708 13.6897 27.1437 12.5649C26.3877 11.6649 25.2357 10.6929 24.9117 10.1889C24.5877 9.68489 24.5517 9.28892 24.9117 8.74893C26.6366 6.38987 28.1087 3.85595 29.3036 1.189V1.22501Z" fill="white" fill-opacity="0.6"/>
</svg>
