<svg width="30" height="31" viewBox="0 0 30 31" fill="none" xmlns="http://www.w3.org/2000/svg">
<path fill-rule="evenodd" clip-rule="evenodd" d="M15.2725 0C11.3662 0 7.6199 1.55177 4.85772 4.31395C2.09555 7.07612 0.543833 10.8224 0.543833 14.7287C0.539773 17.4095 1.27082 20.04 2.65755 22.3343L0 30.2368L8.15315 27.6256C10.3324 28.8305 12.7824 29.4609 15.2725 29.4574C17.2067 29.4574 19.1219 29.0765 20.9088 28.3363C22.6957 27.5961 24.3193 26.5111 25.6868 25.1434C27.0544 23.7757 28.1392 22.152 28.8793 20.3651C29.6193 18.5781 30.0002 16.6629 30 14.7287C30 10.8226 28.4484 7.07652 25.6865 4.31438C22.9246 1.55225 19.1786 0.000332291 15.2725 0ZM15.2725 27.1094C12.8497 27.1121 10.48 26.4 8.46009 25.062L3.69878 26.5856L5.245 21.9872C3.71078 19.8777 2.88555 17.3358 2.88814 14.7275C2.89179 11.4447 4.19745 8.29744 6.51871 5.97617C8.83998 3.65491 11.9873 2.34921 15.27 2.34557C18.5528 2.34921 21.7001 3.65491 24.0213 5.97617C26.3426 8.29744 27.6482 11.4447 27.6519 14.7275C27.6482 18.0098 26.3429 21.1567 24.0222 23.4779C21.7015 25.7991 18.5549 27.1051 15.2725 27.1094Z" fill="white" fill-opacity="0.6"/>
<path fill-rule="evenodd" clip-rule="evenodd" d="M22.4984 19.8359C22.1965 20.6791 20.723 21.4923 20.0614 21.5524C19.3999 21.6126 19.3999 22.095 15.7287 20.649C12.0574 19.2031 9.74191 15.4404 9.56148 15.1998C9.38105 14.9593 8.08801 13.2427 8.08801 11.466C8.08801 9.68926 9.02017 8.81719 9.35096 8.45884C9.47161 8.3214 9.61938 8.21038 9.78497 8.13276C9.95057 8.05514 10.1304 8.01258 10.3133 8.00777C10.5551 8.00777 10.7957 8.03784 11.0062 8.03784C11.2167 8.03784 11.5174 7.91255 11.8181 8.64053C12.1188 9.3685 12.8405 11.139 12.9307 11.3194C12.988 11.414 13.0206 11.5215 13.0259 11.6319C13.0311 11.7424 13.0088 11.8525 12.9608 11.9521C12.8699 12.1688 12.7484 12.3714 12.5999 12.5536C12.4195 12.7653 12.2241 13.0247 12.0587 13.1863C11.8933 13.3479 11.6903 13.5622 11.9008 13.9231C12.442 14.8507 13.1175 15.6931 13.9055 16.4228C15.2838 17.6519 16.4478 18.0341 16.8087 18.2145C17.1695 18.3949 17.3801 18.3649 17.5906 18.123C17.8011 17.8812 18.4927 17.0705 18.7333 16.7084C18.9739 16.3463 19.2144 16.4077 19.5464 16.528C19.8785 16.6483 21.6514 17.5216 22.0135 17.702C22.3756 17.8825 22.615 17.9727 22.7052 18.123C22.7954 18.2734 22.7992 18.9926 22.4984 19.8359Z" fill="white" fill-opacity="0.6"/>
</svg>
